<svg id="visual" viewBox="0 0 900 600" width="900" height="600" xmlns="http://www.w3.org/2000/svg" xmlns:xlink="http://www.w3.org/1999/xlink" version="1.1"><path d="M0 424L129 355L257 441L386 406L514 384L643 383L771 448L900 428L900 601L771 601L643 601L514 601L386 601L257 601L129 601L0 601Z" fill="#6f38f6"></path><path d="M0 463L129 465L257 401L386 409L514 413L643 456L771 459L900 396L900 601L771 601L643 601L514 601L386 601L257 601L129 601L0 601Z" fill="#7a1eaa"></path><path d="M0 493L129 445L257 502L386 445L514 511L643 490L771 441L900 482L900 601L771 601L643 601L514 601L386 601L257 601L129 601L0 601Z" fill="#66176b"></path><path d="M0 500L129 536L257 510L386 513L514 496L643 508L771 484L900 506L900 601L771 601L643 601L514 601L386 601L257 601L129 601L0 601Z" fill="#44193a"></path><path d="M0 558L129 530L257 558L386 550L514 543L643 569L771 563L900 538L900 601L771 601L643 601L514 601L386 601L257 601L129 601L0 601Z" fill="#191718"></path></svg>